<svg width="311" height="189" viewBox="0 0 311 189" fill="none" xmlns="http://www.w3.org/2000/svg">
<path fill-rule="evenodd" clip-rule="evenodd" d="M255.744 1.40187C256.823 1.57719 257.562 2.58699 257.402 3.66879C256.974 6.55701 256.679 11.6765 257.234 17.4478C257.619 21.4534 258.408 25.7056 259.808 29.712L264.109 27.2291C265.976 26.1508 268.386 26.8277 269.49 28.7408L284.49 54.7216C285.595 56.6348 284.976 59.0598 283.109 60.1381L277.107 63.6034C278.826 68.569 282.139 75.8855 287.648 83.22C295.497 93.6695 305.648 102.574 309.695 105.682C310.129 106.015 310.407 106.51 310.465 107.053C310.524 107.597 310.358 108.14 310.005 108.558C306.401 112.828 299.823 119.131 291.681 124.324C283.558 129.505 273.673 133.712 263.512 133.468C244.166 133.005 229.915 130.141 225.081 128.719C224.436 128.529 223.929 128.027 223.733 127.384C223.537 126.74 223.677 126.041 224.107 125.523L233.298 114.443C233.72 113.935 234.365 113.668 235.022 113.729C239.24 114.121 249.614 112.137 255.23 100.313C258.012 94.4571 258.049 88.1914 256.888 82.6382C256.415 80.3745 255.748 78.2546 255.005 76.3637L213.785 100.162C211.918 101.24 209.508 100.563 208.404 98.6502L206.904 96.0521L177.624 112.957L173.612 110.654L204.904 92.588L201.904 87.3918L167.593 107.201L165.587 106.05L200.904 85.6598L197.404 79.5976L158.565 102.021L154.553 99.7189L195.404 76.1335L193.404 72.6694C192.299 70.7562 192.918 68.3312 194.785 67.2529L239.638 41.3574L239.667 41.163C238.254 39.2339 234.515 36.0608 228.565 36.5603C221.358 37.1654 209.464 40.8408 204.344 42.6418C203.789 42.8372 203.175 42.7779 202.668 42.4798C202.16 42.1817 201.81 41.675 201.71 41.0947L199.991 31.1175C199.902 30.6044 200.017 30.0772 200.312 29.6477C204.151 24.0434 211.458 15.9812 221.024 9.81564C230.598 3.64565 242.61 -0.731456 255.744 1.40187ZM132.608 112.389L61.8295 153.253C61.6938 153.331 61.5646 153.416 61.4423 153.508C56.738 151.954 51.4161 152.337 46.7877 155.009C38.1784 159.979 35.2287 170.988 40.1992 179.597C45.1698 188.206 56.1784 191.156 64.7877 186.186C69.8095 183.286 72.9057 178.333 73.6276 172.999L155.783 125.567L151.752 123.275L73.6535 168.365C73.4039 166.361 72.8112 164.369 71.8525 162.477L145.707 119.837L143.692 118.691L70.8525 160.745C69.4818 158.645 67.7361 156.919 65.7558 155.605L136.638 114.68L132.608 112.389ZM257.863 35.4535L243.303 43.8603L242.878 46.6473L254.991 67.6269C255.497 68.3739 256.035 69.2581 256.578 70.2595L272.203 61.2382C272.079 60.7602 271.976 60.3237 271.894 59.9326C269.739 56.5345 264.402 47.7026 258.518 36.7352C258.292 36.3123 258.073 35.8849 257.863 35.4535ZM224.685 54.6089L238.866 46.4215L238.818 46.7386C238.75 47.1876 238.836 47.6465 239.063 48.0398L251.008 68.7283L224.685 54.6089ZM275.745 58.797C275.794 59.054 275.857 59.3432 275.932 59.6625L281.109 56.674L266.109 30.6932L261.337 33.4479C261.562 33.9199 261.797 34.3857 262.043 34.8444C268.074 46.0865 273.517 55.0478 275.466 58.0948C275.603 58.309 275.698 58.5473 275.745 58.797ZM224.412 56.693L252.98 72.0169C253.102 72.2383 253.224 72.467 253.346 72.7027L228.762 86.8965L224.412 56.693ZM253.203 5.09021C242.086 3.85269 231.765 7.65236 223.191 13.1779C214.499 18.7798 207.764 26.0576 204.072 31.2486L205.254 38.107C206.535 37.6832 208.023 37.2093 209.637 36.7212L209.658 32.1082C212.661 28.6425 221.737 20.6307 234.023 16.3092C243.776 12.8783 249.941 12.3925 252.948 12.6961C252.882 9.78319 253 7.17253 253.203 5.09021ZM276.447 114.791C267.946 116.919 253.707 116.957 243.212 116.511C240.386 117.474 237.758 117.805 235.736 117.77L229.203 125.645C235.432 127.065 247.728 129.089 263.608 129.469C272.649 129.686 281.737 125.922 289.53 120.952C296.354 116.599 302.027 111.422 305.588 107.524C303.745 106.013 301.325 103.904 298.639 101.352C294.176 105.84 285.887 112.428 276.447 114.791ZM222.329 55.9695L197.636 70.2257L226.603 85.6473L222.329 55.9695ZM197.855 72.569L211.785 96.6978L226.845 88.0033L197.855 72.569ZM60.2877 178.391C55.9831 180.877 50.4787 179.402 47.9934 175.097C45.5082 170.793 46.9831 165.288 51.2877 162.803C55.5923 160.318 61.0966 161.793 63.5819 166.097C66.0672 170.402 64.5923 175.906 60.2877 178.391Z" fill="#2B2C34"/>
<path fill-rule="evenodd" clip-rule="evenodd" d="M53.0754 3.66879C52.9153 2.58699 53.6538 1.57719 54.7332 1.40187C67.8675 -0.731456 79.8793 3.64565 89.4529 9.81564C99.0195 15.9812 106.326 24.0434 110.165 29.6477C110.46 30.0772 110.575 30.6044 110.486 31.1175L108.767 41.0947C108.667 41.675 108.317 42.1817 107.809 42.4798C107.301 42.7779 106.688 42.8372 106.133 42.6418C101.013 40.8408 89.119 37.1654 81.9115 36.5603C75.9619 36.0608 72.2232 39.2339 70.8097 41.163L70.8394 41.3574L115.692 67.2529C117.559 68.3312 118.178 70.7562 117.073 72.6694L115.073 76.1335L248.647 153.253C248.783 153.331 248.912 153.416 249.035 153.508C253.739 151.954 259.061 152.337 263.689 155.009C272.299 159.979 275.248 170.988 270.278 179.597C265.307 188.207 254.299 191.156 245.689 186.186C240.668 183.286 237.571 178.333 236.849 172.999L103.573 96.0521L102.073 98.6502C100.969 100.563 98.5593 101.24 96.6917 100.162L55.4721 76.3637C54.7295 78.2546 54.0621 80.3745 53.589 82.6382C52.4283 88.1914 52.4651 94.4571 55.2466 100.313C60.863 112.137 71.2366 114.121 75.4546 113.729C76.1121 113.668 76.7574 113.935 77.1791 114.443L86.3704 125.523C86.7999 126.041 86.9404 126.74 86.7441 127.384C86.5478 128.027 86.0411 128.529 85.3957 128.719C80.5624 130.141 66.3106 133.005 46.9652 133.468C36.8037 133.712 26.9185 129.505 18.7963 124.324C10.6545 119.131 4.07606 112.828 0.471693 108.558C0.119208 108.14 -0.0470573 107.597 0.0115391 107.053C0.0701359 106.51 0.348502 106.015 0.781918 105.682C4.82869 102.574 14.9801 93.6695 22.8291 83.22C28.3382 75.8855 31.6512 68.569 33.3705 63.6034L27.3684 60.1381C25.5008 59.0598 24.8822 56.6348 25.9868 54.7216L40.9868 28.7408C42.0914 26.8277 44.5008 26.1508 46.3684 27.2291L50.6689 29.712C52.0685 25.7056 52.8575 21.4534 53.243 17.4478C53.7983 11.6765 53.5028 6.55701 53.0754 3.66879ZM67.1744 43.8603L52.6135 35.4535C52.4036 35.8849 52.1854 36.3123 51.9586 36.7352C46.0754 47.7026 40.7379 56.5345 38.5832 59.9326C38.5007 60.3237 38.398 60.7602 38.2739 61.2382L53.8993 70.2595C54.442 69.2581 54.9804 68.3739 55.4863 67.6269L67.5989 46.6473L67.1744 43.8603ZM71.6106 46.4215L85.7916 54.6089L59.4693 68.7283L71.4138 48.0398C71.6409 47.6465 71.7273 47.1876 71.6589 46.7386L71.6106 46.4215ZM34.5447 59.6625C34.6204 59.3432 34.6826 59.054 34.7317 58.797C34.7795 58.5473 34.8743 58.309 35.0113 58.0948C36.9602 55.0478 42.4032 46.0865 48.4337 34.8444C48.6798 34.3857 48.9149 33.9199 49.1397 33.4479L44.3684 30.6932L29.3684 56.674L34.5447 59.6625ZM57.4969 72.0169L86.0649 56.693L81.7153 86.8965L57.131 72.7027C57.2533 72.467 57.3755 72.2383 57.4969 72.0169ZM87.286 13.1779C78.7124 7.65236 68.3913 3.85269 57.2744 5.09021C57.4765 7.17253 57.5952 9.78319 57.5285 12.6961C60.5362 12.3925 66.7012 12.8783 76.4544 16.3092C88.7395 20.6307 97.8163 28.6425 100.819 32.1082L100.84 36.7212C102.454 37.2093 103.942 37.6832 105.223 38.107L106.405 31.2486C102.713 26.0576 95.9781 18.7798 87.286 13.1779ZM67.2647 116.511C56.7702 116.957 42.5309 116.919 34.0297 114.791C24.5905 112.428 16.3011 105.84 11.8376 101.352C9.15229 103.904 6.7319 106.013 4.88884 107.524C8.45033 111.422 14.1229 116.599 20.9473 120.952C28.7402 125.922 37.8281 129.686 46.8694 129.469C62.7491 129.089 75.0447 127.065 81.2737 125.645L74.7413 117.77C72.7185 117.805 70.0906 117.474 67.2647 116.511ZM112.841 70.2257L88.1483 55.9695L83.8744 85.6473L112.841 70.2257ZM98.6917 96.6978L112.622 72.569L83.6324 88.0033L98.6917 96.6978ZM244.721 155.605C242.741 156.919 240.995 158.645 239.625 160.745L109.573 85.6598L113.073 79.5976L244.721 155.605ZM238.625 162.477C237.666 164.369 237.073 166.361 236.824 168.365L105.573 92.588L108.573 87.3918L238.625 162.477ZM262.484 175.097C259.998 179.402 254.494 180.877 250.189 178.391C245.885 175.906 244.41 170.402 246.895 166.097C249.38 161.793 254.885 160.318 259.189 162.803C263.494 165.288 264.969 170.793 262.484 175.097Z" fill="#2B2C34"/>
</svg>
