<svg width="516" height="136" viewBox="0 0 516 136" fill="currentColor" xmlns="http://www.w3.org/2000/svg">
<path d="M5.95014 2.78087C10.2867 4.09367 14.6232 5.45695 18.9598 6.76975C21.9348 7.6786 24.9099 8.53697 27.8346 9.5973C28.843 9.95075 29.902 10.5567 30.6583 11.314C42.6595 23.2807 54.6102 35.2473 66.6113 47.2644C67.9728 48.6277 67.9728 48.6277 69.3343 47.2644C72.6119 43.9824 75.9399 40.6499 79.2175 37.368C88.2436 28.4309 97.2192 19.4433 106.245 10.5567C106.901 9.90026 107.96 9.49632 108.867 9.19337C115.372 7.12319 121.927 5.10351 128.483 3.08382C129.037 2.93235 129.592 2.83136 130.449 2.62939C129.844 4.64908 129.289 6.4163 128.735 8.18353C127.02 13.7377 125.306 19.2413 123.491 24.7954C123.188 25.7043 122.633 26.6131 121.927 27.32C109.825 39.4886 97.7235 51.6067 85.5711 63.7753C84.26 65.0881 84.26 65.0881 85.5711 66.4009C91.3195 72.157 97.1184 77.9636 102.867 83.7197C104.077 84.9315 104.43 84.881 105.086 83.3663C107.254 78.519 108.716 73.5203 108.716 68.1681C108.716 67.0068 109.12 66.5019 110.33 66.5019C112.397 66.5524 114.465 66.5019 116.482 66.5019C117.187 66.5019 117.793 66.6534 117.692 67.5117C117.389 70.4403 117.238 73.3688 116.683 76.2469C115.271 83.1138 112.548 89.4758 108.262 95.0804C107.455 96.1408 107.556 96.7972 108.464 97.706C117.187 106.34 125.861 115.075 134.534 123.76C135.895 125.123 135.845 125.224 134.433 126.487C132.668 128.153 130.953 129.869 129.289 131.687C128.079 133 127.978 133.05 126.718 131.839C118.045 123.154 109.372 114.469 100.699 105.785C99.3371 104.421 99.3371 104.421 97.7235 105.583C91.1682 110.228 83.9071 113.106 75.8895 114.166C74.3263 114.368 72.7127 114.368 71.0991 114.469C70.0402 114.57 69.5359 114.166 69.5864 113.056C69.6368 111.086 69.6368 109.117 69.5864 107.148C69.5864 106.088 69.9898 105.684 71.0991 105.633C76.3937 105.583 81.3858 104.27 86.1762 102.048C86.63 101.846 87.0334 101.543 87.5881 101.24C87.1847 100.736 86.8821 100.332 86.5291 99.9782C80.6799 94.1211 74.8306 88.264 68.9813 82.3564C68.1241 81.4981 67.6702 81.599 66.8634 82.4069C61.0646 88.264 55.2153 94.0706 49.4164 99.9277C48.2062 101.139 48.2566 101.24 49.7694 101.998C54.6606 104.371 59.9048 105.482 65.3003 105.886C66.3592 105.936 66.813 106.391 66.7626 107.451C66.7122 109.37 66.7122 111.339 66.7626 113.258C66.813 114.469 66.2079 114.823 65.149 114.772C55.2153 114.267 46.1388 111.339 38.0708 105.381C36.5581 104.27 36.5581 104.27 35.2974 105.532C26.6748 114.166 18.0521 122.801 9.42946 131.435C8.01756 132.849 8.06799 132.798 6.60566 131.435C6.35354 131.182 6.05099 130.93 5.74844 130.677C4.99207 129.92 0.857224 126.487 0 125.123C0.0504249 125.073 5.89971 119.216 5.95014 119.165C13.3122 111.844 20.6238 104.472 27.9858 97.1506C28.6413 96.5447 28.5909 95.9893 28.0362 95.2824C24.7082 91.0915 22.4391 86.2948 20.8255 81.2456C19.464 77.0547 18.7581 72.7629 18.6068 68.3701C18.5564 67.1583 19.0102 66.7543 20.2204 66.7543C22.0861 66.8048 24.0023 66.8048 25.868 66.7543C26.9773 66.7039 27.4312 67.0573 27.4816 68.2186C27.6833 73.4193 28.8935 78.3675 31.0617 83.0633C31.7677 84.5781 31.919 84.6286 33.1292 83.4167C38.8272 77.7616 44.4748 72.056 50.1728 66.3504C51.5343 64.9871 51.5343 64.9871 50.2232 63.6238C38.1212 51.5057 26.0193 39.4381 13.9677 27.32C13.4635 26.8151 12.9088 26.1587 12.7071 25.5023C11.2448 21.059 9.93371 16.6157 8.52181 12.1724C7.61416 9.34484 6.70651 6.46679 5.84929 3.63924C5.95014 3.28579 5.95014 3.03333 5.95014 2.78087ZM14.4215 14.5455C14.3207 14.596 14.2198 14.697 14.119 14.7475C15.077 17.7265 15.9847 20.7561 16.9932 23.7351C17.1949 24.341 17.7496 24.8459 18.2034 25.3003C25.4646 32.4702 32.7258 39.6401 39.9365 46.81C56.6272 63.4724 73.2674 80.1853 89.958 96.8476C92.0759 98.9683 92.1263 98.9683 94.345 96.8981C95.6056 95.6863 95.6056 95.6863 94.3954 94.4745C68.0736 68.1681 41.7518 41.8113 15.43 15.4544C15.1275 15.1009 14.7745 14.8485 14.4215 14.5455ZM17.8504 11.1121C17.7496 11.2635 17.5983 11.415 17.4974 11.5665C17.9513 11.8694 18.4555 12.1219 18.8085 12.5258C44.8277 38.5293 70.7966 64.5327 96.7654 90.5866C99.2866 93.1112 98.6815 92.8083 100.951 90.2332C101.707 89.3748 101.707 88.6679 100.799 87.8096C76.4946 63.4724 52.1898 39.1352 27.885 14.798C27.532 14.4445 27.1286 14.0406 26.6748 13.8891C23.7501 12.9298 20.8255 12.0209 17.8504 11.1121ZM118.499 11.2635C118.398 11.1626 118.347 11.0616 118.246 10.9101C115.675 11.718 113.053 12.5258 110.481 13.3842C109.725 13.6367 108.968 14.0911 108.363 14.6465C96.6646 26.2597 85.0164 37.8729 73.3178 49.4861C71.0487 51.7582 71.0487 51.7582 73.3682 54.0808C74.528 55.2422 74.6289 55.2422 75.7886 54.0808C89.7059 40.145 103.623 26.2092 117.591 12.2229C117.944 11.9199 118.246 11.5665 118.499 11.2635ZM122.028 14.7475C121.927 14.6465 121.827 14.596 121.776 14.495C121.373 14.8485 121.02 15.2019 120.616 15.5554C111.943 24.24 103.27 32.9751 94.5971 41.6093C89.3529 46.81 84.1087 52.0107 78.8141 57.2113C77.9569 58.0192 77.8056 58.6251 78.7637 59.433C79.268 59.8369 79.7218 60.2914 80.1252 60.7458C80.932 61.7051 81.5371 61.5537 82.3943 60.7458C94.3954 48.7287 106.397 36.7116 118.398 24.6944C118.801 24.2905 119.204 23.7856 119.406 23.2807C120.263 20.4026 121.121 17.5751 122.028 14.7475ZM64.7456 78.1656C64.443 77.7616 64.1909 77.3577 63.8884 77.0547C61.468 74.6816 61.8714 74.1767 59.098 77.0043C53.7025 82.4069 48.3071 87.8096 42.9116 93.2122C40.3399 95.7873 40.3904 95.7368 43.3654 97.908C44.2226 98.5139 44.7773 98.4129 45.4328 97.706C51.6351 91.4955 57.8374 85.285 64.0396 79.0744C64.2413 78.822 64.443 78.519 64.7456 78.1656ZM58.0895 71.5511C57.8878 71.2482 57.7365 70.9957 57.5348 70.7937C57.0306 70.2888 56.5263 69.7839 56.0221 69.279C54.8623 68.1176 54.8119 68.1176 53.6017 69.3295C47.9037 75.0351 42.2561 80.6902 36.5581 86.3958C34.1881 88.7689 34.1881 89.2233 36.6085 91.5965C37.264 92.2529 37.7683 92.2024 38.4238 91.5965C44.7269 85.285 51.03 78.9734 57.3331 72.6619C57.6357 72.3085 57.8374 71.9045 58.0895 71.5511Z" fill="#0D0D0D"/>
<path d="M262.411 32.1671C257.873 44.4872 252.326 56.1508 242.645 65.6434C243.098 65.8453 243.401 66.0473 243.653 66.0978C246.426 66.7542 249.2 67.3601 251.973 68.0165C253.738 68.4709 255.503 68.7739 256.764 67.0066C257.016 66.6532 257.066 66.1988 257.369 65.8958C257.722 65.5929 258.276 65.2394 258.68 65.2899C258.982 65.3404 259.285 65.9463 259.537 66.3503C259.587 66.4512 259.537 66.6027 259.587 66.7037C259.739 72.3588 259.94 78.0644 260.092 83.7195C260.092 84.0225 260.092 84.3254 260.092 84.5779C260.041 85.2848 260.243 86.1432 259.234 86.2441C258.276 86.3956 257.974 85.6887 257.57 84.9818C256.411 82.9117 255.402 80.791 253.94 78.9733C250.713 74.8834 246.679 71.8539 241.535 70.5411C238.611 69.7837 235.837 70.0867 232.913 70.945C230.29 71.7024 228.273 73.0657 226.66 75.0854C223.735 78.6703 222.122 82.8612 221.365 87.355C219.651 96.9989 220.458 106.441 223.836 115.681C225.551 120.427 228.122 124.618 232.156 127.799C235.585 130.475 240.779 131.839 245.065 129.667C245.922 129.213 246.326 128.708 246.326 127.698C246.275 121.437 246.326 115.176 246.275 108.915C246.275 106.643 244.964 105.027 243.199 104.017C241.686 103.159 239.972 102.755 238.258 102.2C237.501 101.947 236.694 101.897 236.745 100.887C236.745 99.776 237.552 99.6245 238.409 99.675C242.645 99.8265 246.88 100.079 251.116 100.079C255.402 100.079 259.688 99.877 263.974 99.776C265.084 99.7255 266.243 99.6245 267.353 99.7255C267.756 99.776 268.412 100.331 268.412 100.634C268.412 101.089 268.059 101.695 267.655 101.947C267.101 102.301 266.344 102.301 265.739 102.553C263.369 103.714 262.159 105.684 262.209 108.36C262.26 113.257 262.31 118.206 262.462 123.103C262.512 125.022 261.705 126.385 260.293 127.547C255.251 131.536 249.401 133.606 243.25 135.02C238.258 136.13 233.013 136.029 228.072 135.322C219.247 134.161 212.289 129.465 207.65 121.639C204.624 116.539 203.162 110.985 202.658 105.128C202.002 97.7058 202.859 90.536 206.187 83.77C208.809 78.4179 212.642 74.1765 217.634 70.945C218.188 70.5916 218.743 70.2381 219.449 69.7332C219.096 69.4808 218.844 69.2283 218.592 69.0768C211.885 65.7443 206.692 60.6951 202.355 54.6361C200.237 51.657 198.22 48.6275 196.405 45.4465C194.64 42.417 195.195 40.3468 197.968 38.1757C199.531 36.9638 201.195 35.9035 202.708 34.6412C204.523 33.1264 206.389 31.6622 207.902 29.8949C211.986 25.0982 211.331 17.5244 206.591 13.384C204.422 11.5158 201.952 11.1624 199.279 12.3237C195.195 14.1919 192.321 17.3729 189.951 21.0588C189.446 21.8162 189.043 22.6746 188.589 23.4825C187.328 25.5021 187.127 27.6733 187.177 29.9959C187.228 39.9429 187.228 49.9403 187.177 59.8873C187.177 61.9574 187.631 63.7751 189.598 64.785C190.606 65.2899 191.816 65.5424 192.926 65.8453C193.632 65.9968 194.287 66.1988 194.186 67.1076C194.085 68.0165 193.43 68.2689 192.673 68.2185C189.093 68.1175 185.564 67.966 181.983 67.966C176.235 67.966 170.487 68.1175 164.738 68.168C164.183 68.168 163.326 67.865 163.124 67.4611C162.772 66.8047 163.074 66.0978 164.032 65.8958C165.293 65.5929 166.604 65.3404 167.764 64.886C169.932 64.0276 171.092 62.4624 171.092 60.0387C171.092 44.6891 171.092 29.3395 171.092 13.9899C171.092 10.0011 168.117 6.41612 164.234 5.50726C163.83 5.40628 163.326 5.40628 163.024 5.15382C162.671 4.80037 162.318 4.24496 162.368 3.84102C162.368 3.48758 162.973 3.18463 163.326 2.93217C163.477 2.83118 163.73 2.88167 163.931 2.88167C168.873 2.98266 173.815 3.03315 178.807 3.13414C180.773 3.18463 182.589 3.74004 184.152 5.00234C186.068 6.61809 186.875 8.68827 186.925 11.1119C186.975 13.0306 186.925 14.9493 186.925 16.868C187.026 16.9185 187.127 16.969 187.228 16.969C187.429 16.7165 187.681 16.4641 187.883 16.2116C190.304 13.2326 192.573 10.0516 195.245 7.27449C198.321 4.04299 201.952 1.51839 206.439 0.559038C211.936 -0.60228 217.23 -0.0973592 221.869 3.43709C226.408 6.92104 227.769 14.0909 225.097 19.8975C223.181 24.1388 220.205 27.3703 216.424 29.9959C214.961 31.0058 213.499 32.0156 212.087 33.076C209.969 34.6412 209.566 36.6104 210.776 38.933C213.348 44.0327 216.524 48.6275 220.508 52.6669C223.13 55.2925 225.954 57.7161 229.635 58.8269C234.224 60.1902 238.409 59.3318 242.191 56.3528C246.679 52.7679 249.956 48.1731 252.427 43.0734C254.999 37.8727 257.217 32.5205 259.537 27.1684C259.789 26.613 259.638 25.7546 259.386 25.1992C256.764 20.3519 254.091 15.5552 251.368 10.7584C249.351 7.224 246.124 5.45677 242.292 4.54791C241.838 4.44693 241.334 4.34595 241.081 4.04299C240.829 3.74004 240.678 3.18463 240.779 2.83118C240.829 2.52823 241.334 2.27577 241.686 2.0738C241.989 1.97282 242.342 2.02331 242.695 2.02331C248.191 2.02331 253.688 2.0738 259.184 2.02331C262.915 2.02331 265.84 3.58856 267.756 6.66858C269.672 9.69811 271.286 12.8791 272.95 16.0601C278.245 26.108 283.489 36.156 288.733 46.2039C291.052 50.5967 293.322 54.9895 295.591 59.3823C297.406 62.9168 300.28 64.987 304.113 65.7948C304.919 65.9463 305.676 66.0978 305.575 67.1076C305.474 68.067 304.667 68.1175 303.961 68.1175C303.407 68.1175 302.852 68.168 302.348 68.1175C301.541 68.067 301.037 68.2689 300.684 69.1273C300.482 69.5817 299.877 69.9352 299.423 70.1372C298.566 70.4906 297.658 70.5916 296.75 70.8945C294.532 71.6519 293.372 73.1667 293.372 75.5398C293.372 84.8304 293.17 94.1209 293.422 103.411C293.574 109.067 294.582 114.621 298.011 119.417C301.39 124.164 306.029 126.082 311.777 125.527C319.593 124.719 323.879 119.922 326.148 112.752C327.258 109.168 327.56 105.482 327.611 101.796C327.711 94.1714 327.51 86.5471 327.711 78.9733C327.812 74.6814 325.039 72.0054 321.711 70.7935C321.207 70.5916 320.652 70.4906 320.148 70.3391C319.089 70.0867 317.929 69.9857 318.08 68.3699C318.08 68.2185 317.273 67.865 316.87 67.865C314.198 67.9155 311.525 68.0165 308.802 68.067C308.449 68.067 307.945 68.168 307.693 68.0165C307.239 67.764 306.735 67.3601 306.634 66.9057C306.583 66.6027 307.138 65.9968 307.541 65.7948C308.197 65.4919 308.903 65.4414 309.609 65.2899C312.382 64.684 314.097 62.5633 314.097 59.7358C314.097 43.4773 314.097 27.2694 314.097 11.0109C314.097 7.98138 312.987 6.46661 310.063 5.60825C309.256 5.35579 308.348 5.35579 307.642 5.05284C307.188 4.85087 306.684 4.24496 306.634 3.74004C306.583 3.3866 307.239 2.78069 307.642 2.62921C308.298 2.47774 309.054 2.62921 309.76 2.62921C312.13 2.7302 314.55 2.83118 316.92 2.88167C320.601 2.93217 324.282 2.93217 327.964 2.88167C330.586 2.83118 333.258 2.62921 335.88 2.52823C336.031 2.52823 336.233 2.47774 336.384 2.52823C337.191 2.67971 338.351 2.52823 338.401 3.79053C338.452 5.00234 337.393 5.00234 336.536 5.2548C335.225 5.65874 333.863 6.06268 332.653 6.66858C331.493 7.27449 330.939 8.43581 330.939 9.79909C330.939 26.8149 330.939 43.8813 330.939 60.8971C330.939 62.9673 332.401 64.583 334.821 65.2394C335.527 65.4414 336.334 65.5424 337.04 65.7948C337.443 65.9463 337.998 66.2493 338.149 66.6532C338.452 67.5116 339.007 67.562 339.763 67.4106C340.62 67.2591 341.578 67.2591 341.73 68.3699C341.881 69.4808 341.175 69.8847 340.166 70.0867C335.729 70.945 333.208 74.025 333.208 78.5188C333.208 87.052 333.309 95.5852 333.157 104.118C333.056 110.632 331.897 116.994 328.77 122.851C325.594 128.708 320.904 132.747 314.399 134.414C312.584 134.868 310.668 135.02 308.802 135.12C306.432 135.221 304.113 135.221 301.743 135.12C292.464 134.717 285.556 130.324 281.119 122.195C277.942 116.438 276.833 110.076 276.732 103.563C276.581 94.0199 276.53 84.4769 276.48 74.9339C276.48 73.1667 275.723 71.9044 274.16 71.1975C272.9 70.6421 271.538 70.3896 270.227 69.9352C269.824 69.8342 269.37 69.6827 269.168 69.4303C268.462 68.5719 269.521 65.8453 270.58 65.5929C271.79 65.2899 273.051 65.1384 274.261 64.7345C275.017 64.482 275.723 64.0781 276.328 63.5732C277.841 62.4119 278.093 61.402 277.236 59.7358C274.211 53.6767 271.084 47.6682 268.008 41.6596C266.496 38.6806 265.033 35.7015 263.52 32.773C263.369 32.47 263.167 32.1166 263.016 31.8136C262.663 32.2176 262.512 32.1671 262.411 32.1671Z" fill="#0D0D0D"/>
<path d="M371.632 11.6672C371.783 11.3643 371.884 11.0613 372.085 10.7584C375.968 5.6082 381.112 2.3767 387.314 1.1144C397.752 -1.00627 406.677 2.67966 412.678 12.1722C416.157 17.6758 417.468 23.8358 417.72 30.2988C417.972 37.1658 416.661 43.6792 413.787 49.8898C411.719 54.3836 408.744 58.1705 404.912 61.3515C401.584 64.078 398.054 66.4007 393.819 67.5115C393.819 67.6125 393.869 67.764 393.869 67.865C394.777 67.9659 395.735 68.1174 396.642 68.1174C402.996 68.0669 409.299 67.9154 415.653 67.865C416.56 67.865 417.821 67.5115 417.922 68.9758C417.972 70.2886 416.812 70.2381 415.854 70.44C411.972 71.2479 410.408 72.7122 410.459 76.4486C410.509 93.01 410.459 109.622 410.459 126.183C410.459 128.102 410.509 128.253 412.425 128.153C416.964 127.951 421.552 128.203 425.939 127.294C432.948 125.88 437.285 121.134 439.151 114.217C439.302 113.712 439.302 113.156 439.604 112.803C439.857 112.399 440.512 111.894 440.815 111.995C441.268 112.147 441.672 112.702 441.874 113.156C442.075 113.611 441.974 114.166 441.924 114.671C441.773 117.802 441.773 120.983 441.369 124.113C440.714 129.516 438.293 132.343 432.293 132.949C425.082 133.656 417.871 133.555 410.661 133.353C403.5 133.101 396.39 133.252 389.23 133.252C388.675 133.252 388.121 133.252 387.616 133.252C386.81 133.202 386.053 133.05 386.003 132.04C386.003 131.081 386.608 130.677 387.515 130.526C388.726 130.273 389.986 129.97 391.146 129.516C393.012 128.758 393.869 127.294 393.819 125.224C393.768 117.297 393.768 109.319 393.819 101.392C393.869 95.4841 394.02 89.627 394.02 83.7195C394.02 80.8414 393.869 78.0139 393.768 75.1358C393.718 73.5706 393.012 72.3083 391.6 71.6519C390.39 71.0964 389.079 70.844 387.818 70.3896C387.314 70.1876 386.86 69.8341 386.406 69.5312C385.902 69.2282 385.448 68.7233 384.944 68.6728C383.129 68.5718 381.313 68.6223 379.548 68.6728C379.145 68.6728 378.489 68.8243 378.338 69.1273C377.783 70.1876 376.825 70.2886 375.817 70.4905C374.708 70.743 373.548 71.1469 372.539 71.7528C371.178 72.5607 370.573 73.823 370.573 75.4388C370.573 92.1012 370.573 108.764 370.573 125.426C370.573 128.203 372.691 130.425 375.615 130.728C375.968 130.778 376.372 130.627 376.624 130.829C377.078 131.233 377.481 131.737 377.884 132.192C377.431 132.545 377.027 133.202 376.573 133.202C374.607 133.303 372.64 133.202 370.674 133.202C365.026 133.202 359.328 133.202 353.68 133.202C351.663 133.202 349.646 133.252 347.629 133.252C346.873 133.252 346.268 133 346.217 132.141C346.217 131.283 346.772 130.93 347.579 130.728C348.688 130.475 349.798 130.324 350.857 129.92C352.773 129.112 353.781 127.648 353.781 125.476C353.781 108.764 353.781 92.0507 353.781 75.3883C353.781 73.2171 352.571 71.9548 350.756 71.1469C349.747 70.743 348.688 70.541 347.579 70.3896C346.671 70.2381 346.217 69.8846 346.167 68.9758C346.016 66.7036 346.218 66.4007 348.386 65.8958C348.89 65.7948 349.394 65.6938 349.848 65.5423C352.773 64.4315 354.538 63.4216 354.538 59.3823C354.386 44.3861 354.386 29.3395 354.538 14.3433C354.588 10.5564 351.764 6.46656 347.579 5.70918C346.772 5.55771 345.814 5.45672 345.965 4.24491C346.117 2.98261 347.075 3.08359 347.932 3.0331C352.773 3.0331 357.614 3.0331 362.404 3.0331C363.11 3.0331 363.816 3.13409 364.522 3.23507C367.951 3.73999 370.573 5.65869 370.875 10.1525C370.926 10.5564 371.127 11.0109 371.228 11.4148C371.329 11.5158 371.48 11.6168 371.632 11.6672ZM371.027 40.3972C371.027 41.1546 371.027 41.912 371.027 42.6694C371.027 48.3245 371.027 53.9291 371.027 59.5842C371.027 61.8059 371.783 62.7652 373.901 63.2197C377.935 64.1285 381.969 63.9771 386.003 63.0682C390.995 61.9069 394.928 59.1803 397.5 54.737C399.87 50.6976 400.929 46.2543 401.231 41.6091C401.634 35.348 400.727 29.289 398.256 23.4824C396.39 19.0896 393.97 15.1007 389.785 12.4751C386.204 10.203 382.423 9.74855 378.641 11.5663C373.901 13.7879 370.976 17.3729 371.027 22.9775C371.077 28.7841 371.027 34.5907 371.027 40.3972Z" fill="#0D0D0D"/>
<path d="M468.498 76.7011C469.859 75.2368 470.969 73.9745 472.179 72.7627C476.213 68.7233 481.155 66.3502 486.752 65.6938C497.139 64.5325 505.106 68.6223 510.451 77.6099C513.326 82.4571 514.586 87.8093 514.99 93.4644C515.444 99.1195 514.788 104.623 513.074 109.975C511.258 115.681 508.233 120.629 503.896 124.82C497.997 130.475 491.088 133.454 482.919 133.505C479.793 133.555 476.616 133.757 473.49 133.707C468.145 133.555 462.75 133.151 457.404 133.05C453.27 132.949 449.084 133.202 444.95 133.252C444.496 133.252 443.84 132.798 443.689 132.394C443.437 131.636 443.991 131.132 444.748 131.031C445.151 130.98 445.605 130.93 445.958 130.778C447.118 130.374 448.328 129.97 449.437 129.415C451.202 128.556 451.908 126.991 451.858 125.072C451.807 121.841 451.858 118.609 451.858 115.378C451.858 103.563 451.858 91.7477 451.858 79.9325C451.858 74.7319 449.336 71.5509 444.244 70.4905C443.437 70.339 443.033 69.9351 443.084 69.1272C443.134 68.2184 443.79 67.9659 444.597 67.9659C448.631 67.9659 452.665 67.9659 456.699 67.9659C458.312 67.9659 459.875 68.0164 461.489 68.2184C465.725 68.7738 467.792 70.945 468.246 75.1863C468.397 75.5902 468.448 75.9942 468.498 76.7011ZM468.347 100.129C468.448 100.129 468.498 100.129 468.599 100.129C468.599 108.309 468.599 116.539 468.599 124.719C468.599 126.789 469.557 127.9 471.624 128.253C475.104 128.859 478.533 128.96 482.012 128.253C486.701 127.345 490.836 125.426 493.71 121.488C497.845 115.782 498.904 109.218 498.753 102.351C498.702 99.9274 498.35 97.5038 497.795 95.1307C496.484 89.1221 494.164 83.6185 489.626 79.2257C485.34 75.0853 479.844 74.1764 474.7 77.1555C470.717 79.4781 468.347 82.9621 468.347 87.7588C468.347 91.8487 468.347 95.989 468.347 100.129Z" fill="#0D0D0D"/>
</svg>
