<svg width="438" height="410" viewBox="0 0 438 410" fill="none" xmlns="http://www.w3.org/2000/svg">
<path d="M19.2302 1.33101C33.2455 5.45866 47.2608 9.74508 61.2761 13.8727C70.8912 16.7303 80.5063 19.4292 89.9585 22.7631C93.2178 23.8744 96.6402 25.7794 99.0847 28.1608C137.871 65.786 176.495 103.411 215.281 141.195C219.681 145.481 219.681 145.481 224.081 141.195C234.674 130.876 245.43 120.398 256.023 110.079C285.194 81.9791 314.203 53.7205 343.374 25.7794C345.493 23.7156 348.915 22.4456 351.848 21.493C372.871 14.984 394.057 8.63378 415.243 2.28354C417.036 1.80727 418.828 1.48976 421.599 0.854736C419.643 7.20498 417.851 12.7614 416.058 18.3179C410.517 35.7811 404.976 53.0855 399.109 70.5486C398.131 73.4062 396.339 76.2639 394.057 78.4864C354.945 116.747 315.832 154.848 276.557 193.108C272.32 197.236 272.32 197.236 276.557 201.364C295.135 219.462 313.877 237.719 332.455 255.817C336.366 259.627 337.507 259.468 339.626 254.706C346.633 239.465 351.36 223.748 351.36 206.92C351.36 203.269 352.663 201.681 356.574 201.681C363.256 201.84 369.938 201.681 376.457 201.681C378.738 201.681 380.694 202.157 380.368 204.856C379.39 214.064 378.901 223.272 377.108 232.321C372.545 253.912 363.745 273.915 349.893 291.537C347.285 294.871 347.611 296.935 350.545 299.792C378.738 326.94 406.769 354.404 434.799 381.71C439.199 385.997 439.036 386.314 434.473 390.283C428.769 395.522 423.228 400.92 417.851 406.635C413.939 410.763 413.613 410.922 409.539 407.111C381.509 379.805 353.478 352.499 325.448 325.193C321.047 320.907 321.047 320.907 315.832 324.558C294.647 339.164 271.179 348.213 245.267 351.547C240.215 352.182 235 352.182 229.785 352.499C226.363 352.817 224.733 351.547 224.896 348.054C225.059 341.863 225.059 335.671 224.896 329.48C224.896 326.146 226.2 324.876 229.785 324.717C246.897 324.558 263.031 320.431 278.513 313.445C279.979 312.81 281.283 311.858 283.076 310.905C281.772 309.318 280.794 308.048 279.654 306.936C260.749 288.521 241.845 270.105 222.941 251.531C220.17 248.832 218.703 249.149 216.096 251.689C197.355 270.105 178.45 288.362 159.709 306.778C155.798 310.588 155.961 310.905 160.85 313.287C176.658 320.748 193.606 324.241 211.044 325.511C214.466 325.67 215.933 327.098 215.77 330.432C215.607 336.465 215.607 342.656 215.77 348.689C215.933 352.499 213.977 353.611 210.555 353.452C178.45 351.864 149.116 342.656 123.041 323.923C118.152 320.431 118.152 320.431 114.078 324.4C86.2102 351.547 58.3426 378.694 30.4751 405.841C25.9119 410.287 26.0749 410.128 21.3488 405.841C20.534 405.048 19.5562 404.254 18.5784 403.46C16.1339 401.079 2.77046 390.283 0 385.997C0.162968 385.838 19.0673 367.422 19.2302 367.264C43.0236 344.244 66.654 321.066 90.4474 298.046C92.566 296.141 92.403 294.395 90.6103 292.172C79.8544 278.995 72.5209 263.914 67.3059 248.038C62.9057 234.861 60.6242 221.367 60.1353 207.555C59.9723 203.745 61.439 202.475 65.3503 202.475C71.3801 202.634 77.5729 202.634 83.6027 202.475C87.188 202.316 88.6547 203.427 88.8177 207.079C89.4696 223.431 93.3808 238.989 100.388 253.753C102.67 258.516 103.159 258.675 107.07 254.864C125.486 237.084 143.738 219.144 162.153 201.205C166.554 196.918 166.554 196.918 162.316 192.632C123.204 154.531 84.0916 116.588 45.1422 78.4864C43.5125 76.8989 41.7199 74.8351 41.068 72.7712C36.3419 58.8007 32.1047 44.8302 27.5416 30.8596C24.6082 21.9693 21.6748 12.9202 18.9043 4.02986C19.2303 2.91856 19.2302 2.12479 19.2302 1.33101ZM46.6089 38.3212C46.283 38.4799 45.957 38.7974 45.6311 38.9562C48.7275 48.3228 51.6609 57.8482 54.9203 67.2148C55.5722 69.1198 57.3648 70.7074 58.8315 72.1362C82.299 94.6796 105.766 117.223 129.071 139.766C183.013 192.156 236.793 244.704 290.735 297.094C297.58 303.761 297.743 303.761 304.914 297.252C308.988 293.442 308.988 293.442 305.077 289.632C220.007 206.92 134.938 124.049 49.8683 41.1788C48.8905 40.0675 47.7497 39.2737 46.6089 38.3212ZM57.6908 27.5258C57.3648 28.002 56.8759 28.4783 56.55 28.9546C58.0167 29.9071 59.6464 30.7009 60.7871 31.9709C144.879 113.73 228.807 195.49 312.736 277.408C320.884 285.346 318.929 284.393 326.262 276.296C328.707 273.598 328.707 271.375 325.773 268.676C247.223 192.156 168.672 115.635 90.1214 39.1149C88.9807 38.0037 87.6769 36.7336 86.2102 36.2573C76.758 33.241 67.3059 30.3834 57.6908 27.5258ZM382.975 28.002C382.649 27.6845 382.486 27.367 382.16 26.8907C373.849 29.4308 365.375 31.9709 357.063 34.6698C354.619 35.4636 352.174 36.8924 350.219 38.6387C312.41 75.1526 274.764 111.666 236.956 148.18C229.622 155.324 229.622 155.324 237.119 162.627C240.867 166.279 241.193 166.279 244.941 162.627C289.921 118.81 334.9 74.9938 380.042 31.0184C381.183 30.0659 382.16 28.9546 382.975 28.002ZM394.383 38.9562C394.057 38.6387 393.731 38.4799 393.568 38.1624C392.265 39.2737 391.124 40.385 389.82 41.4963C361.789 68.8023 333.759 96.2671 305.728 123.414C288.78 139.766 271.831 156.118 254.719 172.47C251.949 175.01 251.46 176.915 254.556 179.455C256.186 180.725 257.653 182.154 258.957 183.583C261.564 186.599 263.52 186.123 266.29 183.583C305.077 145.799 343.863 108.015 382.649 70.2311C383.953 68.9611 385.257 67.3735 385.909 65.786C388.679 56.7369 391.45 47.8465 394.383 38.9562ZM209.251 238.354C208.273 237.084 207.459 235.814 206.481 234.861C198.658 227.4 199.962 225.812 190.999 234.702C173.561 251.689 156.124 268.676 138.686 285.663C130.375 293.76 130.538 293.601 140.153 300.427C142.923 302.332 144.716 302.015 146.834 299.792C166.879 280.265 186.925 260.738 206.97 241.211C207.622 240.418 208.273 239.465 209.251 238.354ZM187.739 217.557C187.088 216.604 186.599 215.81 185.947 215.175C184.317 213.588 182.687 212 181.058 210.413C177.309 206.761 177.146 206.761 173.235 210.571C154.82 228.511 136.567 246.292 118.152 264.231C110.492 271.693 110.492 273.121 118.315 280.583C120.434 282.647 122.063 282.488 124.182 280.583C144.553 260.738 164.924 240.894 185.295 221.049C186.273 219.938 186.925 218.668 187.739 217.557Z" fill="#0D0D0D"/>
</svg>
